<?xml version="1.0" encoding="UTF-8" standalone="no"?>
<!-- Created with Inkscape (http://www.inkscape.org/) -->

<svg
   xmlns:dc="http://purl.org/dc/elements/1.1/"
   xmlns:cc="http://creativecommons.org/ns#"
   xmlns:rdf="http://www.w3.org/1999/02/22-rdf-syntax-ns#"
   xmlns:svg="http://www.w3.org/2000/svg"
   xmlns="http://www.w3.org/2000/svg"
   version="1.1"
   width="744.09448"
   height="1052.3622"
   id="svg2">
  <defs
     id="defs4" />
  <metadata
     id="metadata7">
    <rdf:RDF>
      <cc:Work
         rdf:about="">
        <dc:format>image/svg+xml</dc:format>
        <dc:type
           rdf:resource="http://purl.org/dc/dcmitype/StillImage" />
        <dc:title></dc:title>
      </cc:Work>
    </rdf:RDF>
  </metadata>
  <g
     id="layer1">
    <path
       d="m 717.14285,555.2193 a 305.71429,248.57143 0 1 1 -611.42859,0 305.71429,248.57143 0 1 1 611.42859,0 z"
       transform="translate(-74.285714,-100)"
       id="path2985"
       style="fill:#ff6600;fill-opacity:1;stroke:none" />
    <text
       x="197.14285"
       y="546.64789"
       id="text3755"
       xml:space="preserve"
       style="font-size:40px;font-style:normal;font-weight:normal;line-height:125%;letter-spacing:0px;word-spacing:0px;fill:#000000;fill-opacity:1;stroke:none;font-family:Sans"><tspan
         x="197.14285"
         y="546.64789"
         id="tspan3757"
         style="font-size:72px;fill:#000080">SVG</tspan></text>
    <path
       d="m 528.57142,428.07648 a 21.428572,24.285715 0 1 1 -42.85714,0 21.428572,24.285715 0 1 1 42.85714,0 z"
       transform="translate(-48.571428,-34.285718)"
       id="path3759"
       style="fill:#6dff00;fill-opacity:1;stroke:none" />
    <path
       d="m 335.37065,379.60059 a 27.274118,30.304577 0 1 1 -54.54824,0 27.274118,30.304577 0 1 1 54.54824,0 z"
       id="path3805"
       style="fill:#6dff00;fill-opacity:1;stroke:none" />
    <path
       d="m 523.25901,515.97119 a 30.304577,25.253813 0 1 1 -60.60915,0 30.304577,25.253813 0 1 1 60.60915,0 z"
       id="path3807"
       style="fill:#6dff00;fill-opacity:1;stroke:none" />
  </g>
</svg>
